<svg xmlns="http://www.w3.org/2000/svg" xmlns:xlink="http://www.w3.org/1999/xlink" xml:space="preserve" version="1.1" style="shape-rendering:geometricPrecision;text-rendering:geometricPrecision;image-rendering:optimizeQuality;" viewBox="0 0 1.001 1.2512499999999998" x="0px" y="0px" fill-rule="evenodd" clip-rule="evenodd"><defs><style type="text/css">
   
    .fil0 {fill:black;fill-rule:nonzero}
   
  </style></defs><g><path class="fil0" d="M0.33 0l0.341 0c0.012,0 0.023,0.005 0.031,0.013l0.284 0.255c0.01,0.009 0.015,0.021 0.015,0.033l0 0.399c0,0.014 -0.007,0.026 -0.017,0.034l-0.284 0.255c-0.008,0.008 -0.019,0.012 -0.029,0.012l-0.341 0c-0.012,0 -0.023,-0.005 -0.031,-0.013l-0.284 -0.255c-0.01,-0.009 -0.015,-0.021 -0.015,-0.033l0 -0.399c0,-0.014 0.006,-0.026 0.017,-0.035l0.283 -0.255c0.009,-0.007 0.019,-0.011 0.03,-0.011zm0.359 0.343l-0.031 -0.031c-0.018,-0.018 -0.046,-0.018 -0.063,0l-0.095 0.094 -0.094 -0.094c-0.017,-0.018 -0.046,-0.018 -0.063,0l-0.031 0.031c-0.018,0.017 -0.018,0.046 0,0.063l0.094 0.094 -0.094 0.095c-0.018,0.017 -0.018,0.045 0,0.063l0.031 0.031c0.017,0.017 0.046,0.017 0.063,0l0.094 -0.094 0.095 0.094c0.017,0.017 0.045,0.017 0.063,0l0.031 -0.031c0.017,-0.018 0.017,-0.046 0,-0.063l-0.094 -0.095 0.094 -0.094c0.017,-0.017 0.017,-0.046 0,-0.063zm-0.035 -0.254l-0.307 0 -0.258 0.232 0 0.359 0.258 0.232 0.307 0 0.258 -0.232 0 -0.359 -0.258 -0.232z"/></g><text x="0" y="16.001" fill="#000000" font-size="5px" font-weight="bold" font-family="'Helvetica Neue', Helvetica, Arial-Unicode, Arial, Sans-serif">Created by Deemak Daksina</text><text x="0" y="21.001" fill="#000000" font-size="5px" font-weight="bold" font-family="'Helvetica Neue', Helvetica, Arial-Unicode, Arial, Sans-serif">from the Noun Project</text></svg>